<?xml version="1.0" standalone="no"?>
<!DOCTYPE svg PUBLIC "-//W3C//DTD SVG 20010904//EN"
 "https://www.w3.org/TR/2001/REC-SVG-20010904/DTD/svg10.dtd">
<svg version="1.0" xmlns="https://www.w3.org/2000/svg"
 width="320.000000pt" height="320.000000pt" viewBox="0 0 320.000000 320.000000"
 preserveAspectRatio="xMidYMid meet">
<metadata>
Created by potrace 1.14, written by Peter Selinger 2001-2017
</metadata>
<g transform="translate(0.000000,320.000000) scale(0.100000,-0.100000)"
fill="#000000" stroke="none">
<path d="M1709 3146 c-2 -2 -33 -6 -69 -10 -195 -19 -405 -82 -603 -182 -96
-48 -253 -149 -322 -206 -49 -41 -235 -224 -235 -232 0 -3 -12 -18 -26 -33
-15 -15 -36 -42 -48 -59 -61 -89 -119 -180 -129 -203 -6 -14 -14 -28 -18 -31
-11 -9 -86 -184 -113 -264 -28 -85 -55 -183 -61 -225 -2 -14 -6 -37 -9 -50
-20 -92 -28 -375 -13 -486 36 -267 166 -524 367 -726 160 -160 240 -211 505
-320 20 -8 120 -38 130 -38 3 0 15 -3 28 -6 12 -2 38 -8 57 -12 19 -3 477 -8
1018 -10 l982 -4 0 651 0 650 -27 0 c-16 1 -270 1 -566 1 -553 0 -576 2 -626
41 -25 19 -62 71 -71 98 -10 32 -2 126 13 154 15 27 16 27 26 7 14 -25 86 -75
126 -86 87 -25 185 -2 245 58 14 13 39 27 55 30 17 3 40 7 52 10 27 7 110 62
115 77 2 6 33 12 70 14 42 2 83 12 112 25 56 27 120 91 141 139 l17 37 66 1
c77 0 128 20 178 71 55 55 69 89 69 173 0 82 -12 112 -66 173 l-31 35 1 127
c2 113 0 130 -21 172 -29 58 -97 119 -146 129 -20 4 -44 9 -52 11 -8 1 -55 3
-104 3 l-88 1 -95 68 c-103 74 -172 111 -306 165 -34 14 -118 36 -192 52 -35
7 -329 16 -336 10z"/>
</g>
</svg>
